# Blender 4.3.2
# www.blender.org
mtllib Plane3.mtl
o Cube.001
v -0.643493 0.247846 5.629984
v -0.643493 6.205687 5.629984
v 1.025997 0.247846 -0.089166
v 1.025997 6.205686 -0.089166
v 5.075657 0.247846 7.299474
v 5.075657 6.205687 7.299473
v 6.745147 0.247846 1.580324
v 6.745147 6.205686 1.580324
vn -0.9599 -0.0000 -0.2802
vn 0.2802 -0.0000 -0.9599
vn 0.9599 -0.0000 0.2802
vn -0.2802 -0.0000 0.9599
vn -0.0000 -1.0000 -0.0000
vn -0.0000 1.0000 -0.0000
vt 0.375000 0.000000
vt 0.625000 0.000000
vt 0.625000 0.250000
vt 0.375000 0.250000
vt 0.625000 0.500000
vt 0.375000 0.500000
vt 0.625000 0.750000
vt 0.375000 0.750000
vt 0.625000 1.000000
vt 0.375000 1.000000
vt 0.125000 0.500000
vt 0.125000 0.750000
vt 0.875000 0.500000
vt 0.875000 0.750000
s 1
usemtl Material.002
f 1/1/1 2/2/1 4/3/1 3/4/1
f 3/4/2 4/3/2 8/5/2 7/6/2
f 7/6/3 8/5/3 6/7/3 5/8/3
f 5/8/4 6/7/4 2/9/4 1/10/4
f 3/11/5 7/6/5 5/8/5 1/12/5
f 8/5/6 4/13/6 2/14/6 6/7/6
o Cube.002
v -5.605803 0.274916 0.543894
v -5.605803 11.898166 0.543893
v -7.467154 0.274915 -5.115726
v -7.467154 11.898166 -5.115727
v 0.053807 0.274916 -1.317456
v 0.053807 11.898166 -1.317457
v -1.807533 0.274915 -6.977076
v -1.807533 11.898165 -6.977077
vn -0.9499 -0.0000 0.3124
vn -0.3124 -0.0000 -0.9499
vn 0.9499 -0.0000 -0.3124
vn 0.3124 -0.0000 0.9499
vn -0.0000 -1.0000 -0.0000
vn -0.0000 1.0000 -0.0000
vt 0.375000 0.000000
vt 0.625000 0.000000
vt 0.625000 0.250000
vt 0.375000 0.250000
vt 0.625000 0.500000
vt 0.375000 0.500000
vt 0.625000 0.750000
vt 0.375000 0.750000
vt 0.625000 1.000000
vt 0.375000 1.000000
vt 0.125000 0.500000
vt 0.125000 0.750000
vt 0.875000 0.500000
vt 0.875000 0.750000
s 1
usemtl Material.002
f 9/15/7 10/16/7 12/17/7 11/18/7
f 11/18/8 12/17/8 16/19/8 15/20/8
f 15/20/9 16/19/9 14/21/9 13/22/9
f 13/22/10 14/21/10 10/23/10 9/24/10
f 11/25/11 15/20/11 13/22/11 9/26/11
f 16/19/12 12/27/12 10/28/12 14/21/12
o Plane
v -10.291623 0.224047 9.928314
v 9.708377 0.224047 9.928314
v -10.291623 0.224045 -10.071686
v 9.708377 0.224045 -10.071686
vn -0.0000 1.0000 -0.0000
vt 0.000000 0.000000
vt 1.000000 0.000000
vt 1.000000 1.000000
vt 0.000000 1.000000
s 1
usemtl Material.003
f 17/29/13 18/30/13 20/31/13 19/32/13
o Plane.001
v -10.291623 0.224045 -10.071686
v 9.708377 0.224045 -10.071686
v -10.291623 20.224045 -10.071688
v 9.708377 20.224045 -10.071688
vn -0.0000 -0.0000 1.0000
vt 0.000000 0.000000
vt 1.000000 0.000000
vt 1.000000 1.000000
vt 0.000000 1.000000
s 1
usemtl Material.003
f 21/33/14 22/34/14 24/35/14 23/36/14
o Plane.002
v -10.291623 20.224045 -10.071688
v 9.708377 20.224045 -10.071688
v -10.291623 20.224045 9.928312
v 9.708377 20.224045 9.928312
vn -0.0000 -1.0000 -0.0000
vt 0.000000 0.000000
vt 1.000000 0.000000
vt 1.000000 1.000000
vt 0.000000 1.000000
s 1
usemtl Material.003
f 25/37/15 26/38/15 28/39/15 27/40/15
o Plane.003
v 9.708377 20.224045 -10.071688
v 9.708386 0.224045 -10.071686
v 9.708366 20.224045 9.928312
v 9.708377 0.224047 9.928314
vn -1.0000 -0.0000 -0.0000
vt 0.000000 0.000000
vt 1.000000 0.000000
vt 1.000000 1.000000
vt 0.000000 1.000000
s 1
usemtl Material.001
f 29/41/16 30/42/16 32/43/16 31/44/16
o Plane.004
v -10.291623 20.224045 -10.071688
v -10.291613 0.224045 -10.071686
v -10.291633 20.224045 9.928312
v -10.291623 0.224047 9.928314
vn -1.0000 -0.0000 -0.0000
vt 0.000000 0.000000
vt 1.000000 0.000000
vt 1.000000 1.000000
vt 0.000000 1.000000
s 1
usemtl Material.002
f 33/45/17 34/46/17 36/47/17 35/48/17
o Plane.005
v -10.291623 0.224045 9.928314
v 9.708377 0.224045 9.928314
v -10.291623 20.224045 9.928312
v 9.708377 20.224045 9.928312
vn -0.0000 -0.0000 1.0000
vt 0.000000 0.000000
vt 1.000000 0.000000
vt 1.000000 1.000000
vt 0.000000 1.000000
s 1
usemtl Material.004
f 37/49/18 38/50/18 40/51/18 39/52/18
